
<svg width="121" height="46" viewBox="0 0 121 46" fill="none" xmlns="http://www.w3.org/2000/svg">
<g id="WagoLogo">
<g id="Group">
<path id="Vector" d="M79.7023 21.6125V24.4691H83.5771V27.0396H75.8275V19.0461H92.4359V9.9082H70.2928C68.4569 9.9082 66.9727 11.4433 66.9727 13.3329V32.7488C66.9727 34.6424 68.4608 36.1735 70.2928 36.1735H89.1158C90.9516 36.1735 92.4359 34.6384 92.4359 32.7488V21.6125H79.7023Z" fill="#6EC800"/>
<path id="Vector_2" d="M117.68 9.90332H98.8572C97.0214 9.90332 95.5371 11.4384 95.5371 13.328V32.7439C95.5371 34.6375 97.0253 36.1686 98.8572 36.1686H117.68C119.516 36.1686 121 34.6335 121 32.7439V13.328C121 11.4384 119.512 9.90332 117.68 9.90332ZM112.142 27.0348H104.392V19.0412H112.142V27.0348Z" fill="#6EC800"/>
<path id="Vector_3" d="M48.981 9.90345L30.6463 39.0253H27.4707L31.5915 45.5725L45.1844 39.0253H41.2081L45.8836 31.5998H55.0119V36.1687H63.8707V9.89941H48.981V9.90345ZM48.7584 27.0349L55.008 17.1074V27.0349H48.7584Z" fill="#6EC800"/>
<path id="Vector_4" d="M10.5306 36.173L18.2137 23.9731V36.173H28.8497L47.1844 7.04718H50.0554L45.9345 0.5L32.3377 7.04718H36.525L27.0686 22.0714V9.90376H16.5067L8.85489 22.0593V9.90376H0V36.173H10.5306Z" fill="#6EC800"/>
</g>
</g>
</svg>
